<?xml version="1.0" standalone="no"?>
<!DOCTYPE svg PUBLIC "-//W3C//DTD SVG 20010904//EN"
 "http://www.w3.org/TR/2001/REC-SVG-20010904/DTD/svg10.dtd">
<svg version="1.0" xmlns="http://www.w3.org/2000/svg"
 width="50.000000pt" height="50.000000pt" viewBox="0 0 50.000000 50.000000"
 preserveAspectRatio="xMidYMid meet">

<g transform="translate(0.000000,50.000000) scale(0.100000,-0.100000)"
fill="#000000" stroke="none">
<path d="M35 370 c-3 -5 -1 -10 4 -10 6 0 11 5 11 10 0 6 -2 10 -4 10 -3 0 -8
-4 -11 -10z"/>
<path d="M136 364 c-12 -12 -16 -38 -16 -114 0 -126 3 -130 111 -130 78 0 81
1 114 35 34 33 35 36 35 114 0 108 -4 111 -130 111 -76 0 -102 -4 -114 -16z
m222 -6 c8 -8 11 -43 11 -97 -2 -68 -3 -78 -9 -46 l-7 40 -2 -41 c-2 -58 -15
-65 -113 -62 l-83 3 0 95 0 95 80 6 80 5 -75 2 c-48 1 -80 -2 -88 -10 -17 -17
-16 -182 1 -196 7 -6 49 -13 92 -15 l80 -3 -86 -2 c-55 -1 -89 2 -97 10 -16
16 -16 200 0 216 16 16 200 16 216 0z"/>
<path d="M176 321 c-4 -5 3 -7 14 -4 11 3 20 1 20 -5 0 -5 8 -13 17 -16 15 -6
15 -4 -2 14 -19 21 -40 26 -49 11z"/>
<path d="M245 325 c23 -8 83 -10 79 -3 -3 4 -24 8 -47 7 -23 0 -37 -2 -32 -4z"/>
<path d="M193 264 c21 -7 22 -21 2 -27 -11 -4 -10 -4 2 -3 25 2 23 30 -2 33
-16 1 -16 1 -2 -3z"/>
<path d="M253 263 c15 -2 37 -2 50 0 12 2 0 4 -28 4 -27 0 -38 -2 -22 -4z"/>
<path d="M253 233 c15 -2 37 -2 50 0 12 2 0 4 -28 4 -27 0 -38 -2 -22 -4z"/>
<path d="M215 194 c-8 -9 -22 -13 -31 -10 -8 3 -12 2 -9 -4 10 -16 30 -12 50
10 21 24 14 27 -10 4z"/>
<path d="M280 180 l-45 -7 42 -1 c23 -1 45 3 48 8 3 6 5 9 3 8 -2 0 -23 -4
-48 -8z"/>
<path d="M410 176 c0 -2 7 -7 16 -10 8 -3 12 -2 9 4 -6 10 -25 14 -25 6z"/>
<path d="M462 105 c0 -16 2 -22 5 -12 2 9 2 23 0 30 -3 6 -5 -1 -5 -18z"/>
<path d="M320 81 c0 -6 4 -13 10 -16 6 -3 7 1 4 9 -7 18 -14 21 -14 7z"/>
<path d="M439 53 c-13 -16 -12 -17 4 -4 9 7 17 15 17 17 0 8 -8 3 -21 -13z"/>
<path d="M100 39 c0 -5 5 -7 10 -4 6 3 10 8 10 11 0 2 -4 4 -10 4 -5 0 -10 -5
-10 -11z"/>
<path d="M383 33 c9 -2 23 -2 30 0 6 3 -1 5 -18 5 -16 0 -22 -2 -12 -5z"/>
</g>
</svg>
